<svg viewBox="0 0 800 800" xmlns="http://www.w3.org/2000/svg"><path d="M173.00794014548697,427.81633298933804 L234.01708536043355,474.7279824181187 M223.02987651266733,274.6544677078847 L173.00794014548697,427.81633298933804 M280.043507529537,227.29125316546816 L223.02987651266733,274.6544677078847 M372.0144349111134,262.9533422605816 L280.043507529537,227.29125316546816 M234.01708536043355,474.7279824181187 L372.0144349111134,262.9533422605816 M180.81172126490185,410.52871185761614 L173.00794014548697,427.81633298933804 M180.81172126490185,410.52871185761614 L232.98850244297793,450.1921608251966 M234.01708536043355,474.7279824181187 L232.98850244297793,450.1921608251966 M223.02987651266733,274.6544677078847 L227.61413919855534,267.1283818410225 M227.61413919855534,267.1283818410225 L180.81172126490185,410.52871185761614 M258.2926409872866,241.6322803124008 L227.61413919855534,267.1283818410225 M258.2926409872866,241.6322803124008 L280.043507529537,227.29125316546816 M346.31032258516825,276.3908247662317 L258.2926409872866,241.6322803124008 M346.31032258516825,276.3908247662317 L372.0144349111134,262.9533422605816 M232.98850244297793,450.1921608251966 L346.31032258516825,276.3908247662317" stroke="black"  stroke-width="4"  fill="red"/>
<path d="" stroke="black"  stroke-width="4"  fill="red"/>
<path d="M222.23311842682185,260.03517355267013 L238.8396837175697,232.24709655303667 M238.48802216702975,233.81135798039014 L238.8396837175697,232.24709655303667 M227.61413919855534,267.1283818410225 L238.48802216702975,233.81135798039014 M208.3850762548749,298.69713592659764 L227.61413919855534,267.1283818410225 M222.23311842682185,260.03517355267013 L208.3850762548749,298.69713592659764 M355.80876880807386,168.2891679161863 L222.23311842682185,260.03517355267013 M388.0347299141118,134.88105340395123 L355.80876880807386,168.2891679161863 M238.8396837175697,232.24709655303667 L388.0347299141118,134.88105340395123 M388.0347299141118,134.88105340395123 L422.30457623217,133.49411130979126 M258.2926409872866,241.6322803124008 L422.30457623217,133.49411130979126 M238.48802216702975,233.81135798039014 L258.2926409872866,241.6322803124008 M227.61413919855534,267.1283818410225 L258.2926409872866,241.6322803124008 M370.46715209318063,186.26216205678972 L208.3850762548749,298.69713592659764 M422.30457623217,133.49411130979126 L370.46715209318063,186.26216205678972 M370.46715209318063,186.26216205678972 L355.80876880807386,168.2891679161863" stroke="black"  stroke-width="4"  fill="red"/>
<path d="" stroke="black"  stroke-width="4"  fill="red"/>
<path d="" stroke="black"  stroke-width="4"  fill="red"/>
<path d="M612.4357935990619,203.34664835900813 L443.4018305507755,132.64028845102308 M671.6733296322989,219.38641887705222 L612.4357935990619,203.34664835900813 M565.4950828979779,161.80638221243987 L671.6733296322989,219.38641887705222 M443.4018305507755,132.64028845102308 L565.4950828979779,161.80638221243987 M642.3230238445253,187.89784587188024 L612.4357935990619,203.34664835900813 M642.3230238445253,187.89784587188024 L505.7615305564272,130.11652712884296 M443.4018305507755,132.64028845102308 L505.7615305564272,130.11652712884296 M672.6294519685173,195.98512283648455 L642.3230238445253,187.89784587188024 M672.6294519685173,195.98512283648455 L671.6733296322989,219.38641887705222 M565.4950828979779,161.80638221243987 L588.8045455014345,149.6207641300798 M588.8045455014345,149.6207641300798 L672.6294519685173,195.98512283648455 M505.7615305564272,130.11652712884296 L588.8045455014345,149.6207641300798" stroke="black"  stroke-width="4"  fill="red"/>
<path d="" stroke="black"  stroke-width="4"  fill="red"/>
<path d="M180.81172126490185,410.52871185761614 L139.11726171035951,502.8939796136917 M232.98850244297793,450.1921608251966 L180.81172126490185,410.52871185761614 M240.3645410485319,626.1402192822111 L232.98850244297793,450.1921608251966 M139.11726171035951,502.8939796136917 L240.3645410485319,626.1402192822111 M171.11592186364146,440.23617903318825 L180.81172126490185,410.52871185761614 M171.11592186364146,440.23617903318825 L136.93898479812424,515.6557584816619 M139.11726171035951,502.8939796136917 L136.93898479812424,515.6557584816619 M232.98850244297793,450.1921608251966 L216.54753102378712,475.4076304143386 M171.11592186364146,440.23617903318825 L216.54753102378712,475.4076304143386 M240.3645410485319,626.1402192822111 L223.14350013069355,620.9736169870614 M223.14350013069355,620.9736169870614 L216.54753102378712,475.4076304143386 M136.93898479812424,515.6557584816619 L223.14350013069355,620.9736169870614" stroke="black"  stroke-width="4"  fill="red"/>
<path d="" stroke="black"  stroke-width="4"  fill="red"/>
<path d="M142.64207156212348,482.2433122001116 L136.93898479812424,515.6557584816619 M222.23311842682185,260.03517355267013 L142.64207156212348,482.2433122001116 M238.8396837175697,232.24709655303667 L222.23311842682185,260.03517355267013 M238.48802216702975,233.81135798039014 L238.8396837175697,232.24709655303667 M171.11592186364146,440.23617903318825 L238.48802216702975,233.81135798039014 M136.93898479812424,515.6557584816619 L171.11592186364146,440.23617903318825 M123.60550735534775,476.7858857901987 L120.1550262382541,495.1504578731622 M136.93898479812424,515.6557584816619 L120.1550262382541,495.1504578731622 M123.60550735534775,476.7858857901987 L142.64207156212348,482.2433122001116 M194.14510965892381,279.3273268257169 L123.60550735534775,476.7858857901987 M194.14510965892381,279.3273268257169 L222.23311842682185,260.03517355267013 M237.21381187781668,233.30815335525548 L205.41827340828485,259.80752720639 M194.14510965892381,279.3273268257169 L205.41827340828485,259.80752720639 M238.8396837175697,232.24709655303667 L237.21381187781668,233.30815335525548 M237.21381187781668,233.30815335525548 L238.48802216702975,233.81135798039014 M151.1554648670628,424.78353657085523 L171.11592186364146,440.23617903318825 M205.41827340828485,259.80752720639 L151.1554648670628,424.78353657085523 M151.1554648670628,424.78353657085523 L120.1550262382541,495.1504578731622" stroke="black"  stroke-width="4"  fill="red"/>
<path d="" stroke="black"  stroke-width="4"  fill="red"/>
<path d="M120.1550262382541,495.1504578731622 L123.60550735534775,476.7858857901987 M223.14350013069355,620.9736169870614 L120.1550262382541,495.1504578731622 M389.0581849576843,670.7508035510141 L223.14350013069355,620.9736169870614 M325.6301009700813,571.4327581886421 L389.0581849576843,670.7508035510141 M219.27009021923007,504.2111853392595 L325.6301009700813,571.4327581886421 M123.60550735534775,476.7858857901987 L219.27009021923007,504.2111853392595 M116.2174033712767,497.46715340411487 L123.60550735534775,476.7858857901987 M120.1550262382541,495.1504578731622 L113.98785012712415,509.14910990345993 M116.2174033712767,497.46715340411487 L113.98785012712415,509.14910990345993 M223.14350013069355,620.9736169870614 L224.20942927774985,644.4975336993746 M113.98785012712415,509.14910990345993 L224.20942927774985,644.4975336993746 M389.0581849576843,670.7508035510141 L365.03072958744553,685.5180457528309 M365.03072958744553,685.5180457528309 L224.20942927774985,644.4975336993746 M325.6301009700813,571.4327581886421 L300.12821358396656,581.9562481037151 M300.12821358396656,581.9562481037151 L365.03072958744553,685.5180457528309 M219.27009021923007,504.2111853392595 L204.67022967563074,522.0146883501798 M204.67022967563074,522.0146883501798 L300.12821358396656,581.9562481037151 M116.2174033712767,497.46715340411487 L204.67022967563074,522.0146883501798" stroke="black"  stroke-width="4"  fill="red"/>
<path d="" stroke="black"  stroke-width="4"  fill="red"/>
<path d="M477.55984878824586,273.0644323410662 L425.086538224596,253.23226010712028 M642.3230238445253,187.89784587188024 L477.55984878824586,273.0644323410662 M505.7615305564272,130.11652712884296 L642.3230238445253,187.89784587188024 M388.0347299141118,134.88105340395123 L505.7615305564272,130.11652712884296 M355.80876880807386,168.2891679161863 L388.0347299141118,134.88105340395123 M425.086538224596,253.23226010712028 L355.80876880807386,168.2891679161863 M477.55984878824586,273.0644323410662 L469.2552505876072,255.90838424852177 M469.2552505876072,255.90838424852177 L475.16976943744373,250.6183112387277 M475.16976943744373,250.6183112387277 L438.65036319463337,236.69211313973796 M438.65036319463337,236.69211313973796 L425.086538224596,253.23226010712028 M598.383495507644,176.17256941098603 L482.3852292766104,237.36527387922305 M469.2552505876072,255.90838424852177 L482.3852292766104,237.36527387922305 M598.383495507644,176.17256941098603 L642.3230238445253,187.89784587188024 M598.383495507644,176.17256941098603 L468.4761358040574,121.35935025728111 M505.7615305564272,130.11652712884296 L468.4761358040574,121.35935025728111 M404.73999770006236,123.97903644470165 L388.0347299141118,134.88105340395123 M404.73999770006236,123.97903644470165 L468.4761358040574,121.35935025728111 M355.80876880807386,168.2891679161863 L373.8349289822528,155.90795966254473 M404.73999770006236,123.97903644470165 L373.8349289822528,155.90795966254473 M438.65036319463337,236.69211313973796 L373.8349289822528,155.90795966254473 M482.3852292766104,237.36527387922305 L475.16976943744373,250.6183112387277" stroke="black"  stroke-width="4"  fill="red"/>
<path d="" stroke="black"  stroke-width="4"  fill="red"/>
<path d="M438.65036319463337,236.69211313973796 L204.67022967563074,522.0146883501798 M373.8349289822528,155.90795966254473 L438.65036319463337,236.69211313973796 M194.14510965892381,279.3273268257169 L373.8349289822528,155.90795966254473 M116.2174033712767,497.46715340411487 L194.14510965892381,279.3273268257169 M204.67022967563074,522.0146883501798 L116.2174033712767,497.46715340411487 M405.373163472846,224.00228999974777 L438.65036319463337,236.69211313973796 M405.373163472846,224.00228999974777 L174.8048582252847,503.26111738379376 M204.67022967563074,522.0146883501798 L174.8048582252847,503.26111738379376 M373.8349289822528,155.90795966254473 L360.8705255125555,169.30186497377028 M405.373163472846,224.00228999974777 L360.8705255125555,169.30186497377028 M189.6686182806495,287.0785127150033 L194.14510965892381,279.3273268257169 M360.8705255125555,169.30186497377028 L189.6686182806495,287.0785127150033 M118.15847031324347,487.2966062728533 L116.2174033712767,497.46715340411487 M189.6686182806495,287.0785127150033 L118.15847031324347,487.2966062728533 M118.15847031324347,487.2966062728533 L174.8048582252847,503.26111738379376" stroke="black"  stroke-width="4"  fill="red"/>
<path d="" stroke="black"  stroke-width="4"  fill="red"/>
<path d="M588.0992763986266,501.42194824053064 L539.1660886551308,538.7694154607985 M588.0992763986266,501.42194824053064 L469.2552505876072,255.90838424852177 M469.2552505876072,255.90838424852177 L482.3852292766104,237.36527387922305 M482.3852292766104,237.36527387922305 L598.383495507644,176.17256941098603 M598.383495507644,176.17256941098603 L672.6294519685173,195.98512283648455 M672.6294519685173,195.98512283648455 L664.4238108054888,396.8199227201096 M664.4238108054888,396.8199227201096 L612.9377544387312,458.83694323523264 M612.9377544387312,458.83694323523264 L661.1161381576163,477.77590911018683 M661.1161381576163,477.77590911018683 L656.0373282009838,602.080855064077 M656.0373282009838,602.080855064077 L547.8653094842357,557.4880481319856 M547.8653094842357,557.4880481319856 L539.1660886551308,538.7694154607985 M581.8998690855319,291.22803468195775 L585.2463458743701,292.68144482279376 M585.2463458743701,292.68144482279376 L588.5755357038075,294.35387327858723 M588.5755357038075,294.35387327858723 L591.8788887541106,296.2420226775242 M591.8788887541106,296.2420226775242 L595.1377749077192,298.33651724110683 M595.1377749077192,298.33651724110683 L598.3370042299705,300.6284614278377 M598.3370042299705,300.6284614278377 L601.4615162209016,303.10789260833894 M601.4615162209016,303.10789260833894 L604.4964834202827,305.76382906780947 M604.4964834202827,305.76382906780947 L607.4274949321945,308.5842628072796 M607.4274949321945,308.5842628072796 L610.2404965199194,311.55630261641886 M610.2404965199194,311.55630261641886 L612.9220608041043,314.666171766017 M612.9220608041043,314.666171766017 L615.4593593976152,317.899321044255 M615.4593593976152,317.899321044255 L617.8402825305985,321.2405380920612 M617.8402825305985,321.2405380920612 L620.0535782550437,324.67399288969153 M620.0535782550437,324.67399288969153 L621.8935978466913,327.82947551899343 M621.8935978466913,327.82947551899343 L623.5824759585761,331.03432768206926 M623.5824759585761,331.03432768206926 L625.1139877208581,334.27621864437486 M625.1139877208581,334.27621864437486 L626.4825863220999,337.5427220772706 M626.4825863220999,337.5427220772706 L627.6834136098092,340.82138175004076 M627.6834136098092,340.82138175004076 L628.7123784359338,344.0997374715301 M628.7123784359338,344.0997374715301 L629.5660976035034,347.36544195838354 M629.5660976035034,347.36544195838354 L630.2419572603751,350.606280062347 M630.2419572603751,350.606280062347 L630.7380826249416,353.81024626361426 M630.7380826249416,353.81024626361426 L631.0533074172389,356.96560871297044 M631.0533074172389,356.96560871297044 L631.1872134195605,360.0609285451026 M631.1872134195605,360.0609285451026 L631.1400909721003,363.0851201427258 M631.1400909721003,363.0851201427258 L630.9128935199201,366.02750540884415 M630.9128935199201,366.02750540884415 L630.5072511235705,368.8778183208456 M630.5072511235705,368.8778183208456 L629.9254281185172,371.6262549831415 M629.9254281185172,371.6262549831415 L629.1702777683405,374.2635017348336 M629.1702777683405,374.2635017348336 L628.2452556811512,376.7807200546757 M628.2452556811512,376.7807200546757 L627.1543595404053,379.1696082453205 M627.1543595404053,379.1696082453205 L625.9020850805204,381.42238938586 M625.9020850805204,381.42238938586 L624.4934434531613,383.5318019129027 M624.4934434531613,383.5318019129027 L622.9338628279189,385.49116545514204 M622.9338628279189,385.49116545514204 L621.2292546381187,387.2943011095757 M621.2292546381187,387.2943011095757 L619.3858908821944,388.93560662561777 M619.3858908821944,388.93560662561777 L617.4104779819152,390.40999637716857 M617.4104779819152,390.40999637716857 L615.069225756513,391.8469856989474 M615.069225756513,391.8469856989474 L612.5837726290586,393.06694440086596 M612.5837726290586,393.06694440086596 L609.9647514782536,394.0653017251682 M609.9647514782536,394.0653017251682 L607.2232501550045,394.8383298620191 M607.2232501550045,394.8383298620191 L604.3707527783707,395.3831439123283 M604.3707527783707,395.3831439123283 L601.4191896987803,395.69771294474697 M601.4191896987803,395.69771294474697 L598.3808067610214,395.7808627432395 M598.3808067610214,395.7808627432395 L595.2682286660914,395.63228913407426 M595.2682286660914,395.63228913407426 L592.094366081215,395.2525529413102 M592.094366081215,395.2525529413102 L588.8724544989577,394.6431019191464 M588.8724544989577,394.6431019191464 L585.6159133285488,393.8062923513111 M585.6159133285488,393.8062923513111 L582.5246477439676,392.81150884539346 M582.5246477439676,392.81150884539346 L579.4292230653851,391.62201585917904 M579.4292230653851,391.62201585917904 L576.1498309180828,390.1506691856429 M576.1498309180828,390.1506691856429 L572.8928530946513,388.47156961144253 M572.8928530946513,388.47156961144253 L569.6657030020125,386.58818524654265 M569.6657030020125,386.58818524654265 L566.4856123063245,384.50985136895355 M566.4856123063245,384.50985136895355 L563.3664054985456,382.2451931658843 M563.3664054985456,382.2451931658843 L560.3217316817245,379.8037182034967 M560.3217316817245,379.8037182034967 L557.3649552199757,377.1957762833219 M557.3649552199757,377.1957762833219 L554.5091577532469,374.432521857972 M554.5091577532469,374.432521857972 L551.7669746499613,371.5258517769823 M551.7669746499613,371.5258517769823 L549.1506253097066,368.4883947359453 M549.1506253097066,368.4883947359453 L546.6717489045179,365.333399228568 M546.6717489045179,365.333399228568 L544.3413796323391,362.0747031016033 M544.3413796323391,362.0747031016033 L542.1698968740924,358.72664679922195 M542.1698968740924,358.72664679922195 L540.359413446439,355.64921156661006 M540.359413446439,355.64921156661006 L538.6919182023506,352.5223844445999 M538.6919182023506,352.5223844445999 L537.173377383735,349.35734895881154 M537.173377383735,349.35734895881154 L535.8091667242209,346.1654231729719 M535.8091667242209,346.1654231729719 L534.6040447543658,342.9580061035543 M534.6040447543658,342.9580061035543 L533.5622297416387,339.74650877009344 M533.5622297416387,339.74650877009344 L532.6872477049353,336.54235276465573 M532.6872477049353,336.54235276465573 L531.982090906033,333.3568611525247 M531.982090906033,333.3568611525247 L531.4490704076503,330.20126496255057 M531.4490704076503,330.20126496255057 L531.0898624323736,327.0866306812009 M531.0898624323736,327.0866306812009 L530.9055267925132,324.02383435926055 M530.9055267925132,324.02383435926055 L530.8965590645256,321.023505935945 M530.8965590645256,321.023505935945 L531.0627755507287,318.0960277918065 M531.0627755507287,318.0960277918065 L531.4034336965583,315.25147306777694 M531.4034336965583,315.25147306777694 L531.9171857130877,312.49958362331733 M531.9171857130877,312.49958362331733 L532.6021515032548,309.8497675905716 M532.6021515032548,309.8497675905716 L533.4558695200018,307.31102788929155 M533.4558695200018,307.31102788929155 L534.4753426523155,304.89201348639983 M534.4753426523155,304.89201348639983 L535.6570730035055,302.6009352582698 M535.6570730035055,302.6009352582698 L536.9970293245854,300.44559109079205 M536.9970293245854,300.44559109079205 L538.4907261087926,298.4333417961589 M538.4907261087926,298.4333417961589 L540.1331686260326,296.5710963173566 M540.1331686260326,296.5710963173566 L541.9189324498304,294.865291247424 M541.9189324498304,294.865291247424 L543.8421378624832,293.32189170471077 M543.8421378624832,293.32189170471077 L546.1325359657068,291.80411836733003 M546.1325359657068,291.80411836733003 L548.5755059850133,290.50039900569584 M548.5755059850133,290.50039900569584 L551.1611540076267,289.4167166419759 M551.1611540076267,289.4167166419759 L553.8789923567533,288.5582641375279 M553.8789923567533,288.5582641375279 L556.7178839584369,287.9293901191773 M556.7178839584369,287.9293901191773 L559.6662170010663,287.53355590551814 M559.6662170010663,287.53355590551814 L562.7117622886924,287.37334778359434 M562.7117622886924,287.37334778359434 L565.8418207497091,287.45040181280143 M565.8418207497091,287.45040181280143 L569.0431753848262,287.76540185658035 M569.0431753848262,287.76540185658035 L572.3021926630577,288.3180210204859 M572.3021926630577,288.3180210204859 L575.6047920940938,289.1069199734672 M575.6047920940938,289.1069199734672 L578.7470261387137,290.06547029516423 M578.7470261387137,290.06547029516423 L581.8998690855319,291.22803468195775 M592.9883410244548,470.94524036257724 L588.0992763986266,501.42194824053064 M592.9883410244548,470.94524036257724 L541.0249601697897,511.1225336440331 M541.0249601697897,511.1225336440331 L539.1660886551308,538.7694154607985 M558.2677105430723,548.3232434639224 L541.0249601697897,511.1225336440331 M547.8653094842357,557.4880481319856 L558.2677105430723,548.3232434639224 M669.0783727219368,593.7745186927393 L558.2677105430723,548.3232434639224 M656.0373282009838,602.080855064077 L669.0783727219368,593.7745186927393 M661.1161381576163,477.77590911018683 L674.4623330419486,469.65397021408063 M674.4623330419486,469.65397021408063 L669.0783727219368,593.7745186927393 M612.9377544387312,458.83694323523264 L626.3365183343802,450.83288794737615 M626.3365183343802,450.83288794737615 L674.4623330419486,469.65397021408063 M664.4238108054888,396.8199227201096 L677.9683042187747,388.82813949601746 M677.9683042187747,388.82813949601746 L626.3365183343802,450.83288794737615 M686.0121498728759,203.38722330766223 L672.6294519685173,195.98512283648455 M686.0121498728759,203.38722330766223 L677.9683042187747,388.82813949601746 M622.826695431584,186.48614752330673 L598.383495507644,176.17256941098603 M686.0121498728759,203.38722330766223 L622.826695431584,186.48614752330673 M475.16976943744373,250.6183112387277 L482.3852292766104,237.36527387922305 M475.16976943744373,250.6183112387277 L489.2664323987818,255.99389152173592 M622.826695431584,186.48614752330673 L489.2664323987818,255.99389152173592 M469.2552505876072,255.90838424852177 L475.16976943744373,250.6183112387277 M592.9883410244548,470.94524036257724 L489.2664323987818,255.99389152173592 M579.4292230653851,391.62201585917904 L592.920175175819,386.67690613700677 M595.638890296733,286.5640089686412 L598.9793265110825,288.0097814561652 M598.9793265110825,288.0097814561652 L602.3019328163402,289.6739526528221 M602.3019328163402,289.6739526528221 L605.5981758324882,291.5532389815951 M605.5981758324882,291.5532389815951 L608.8494640706803,293.63831529482684 M608.8494640706803,293.63831529482684 L612.0406428222781,295.92032358731336 M612.0406428222781,295.92032358731336 L615.156689343731,298.38935050317673 M615.156689343731,298.38935050317673 L618.1828166883568,301.03445910969015 M618.1828166883568,301.03445910969015 L621.1046561054127,303.84369238009356 M621.1046561054127,303.84369238009356 L623.9081979135044,306.80421496212034 M623.9081979135044,306.80421496212034 L626.5800605653486,309.9023032451331 M626.5800605653486,309.9023032451331 L629.1074628796471,313.1234665990759 M629.1074628796471,313.1234665990759 L631.4783434695141,316.4525503707847 M631.4783434695141,316.4525503707847 L633.6814990247518,319.8737843652947 M633.6814990247518,319.8737843652947 L635.5123496783942,323.01824308307914 M635.5123496783942,323.01824308307914 L637.192055471883,326.2120934279031 M637.192055471883,326.2120934279031 L638.7144269249824,329.4430471060111 M638.7144269249824,329.4430471060111 L640.0739521688515,332.6987233176708 M640.0739521688515,332.6987233176708 L641.2658076936755,335.96670555135483 M641.2658076936755,335.96670555135483 L642.2859357941919,339.23457519034207 M642.2859357941919,339.23457519034207 L643.1309859869021,342.4900262550297 M643.1309859869021,342.4900262550297 L643.7983757555074,345.72088571924604 M643.7983757555074,345.72088571924604 L644.2862607153126,348.9151801900897 M644.2862607153126,348.9151801900897 L644.5935035567963,352.0612155082583 M644.5935035567963,352.0612155082583 L644.7197134660481,355.1475866186931 M644.7197134660481,355.1475866186931 L644.6652066451159,358.16323972960305 M644.6652066451159,358.16323972960305 L644.430960973824,361.0975264017195 M644.430960973824,361.0975264017195 L644.0186291868488,363.9402081923774 M644.0186291868488,363.9402081923774 L643.4304966632999,366.68150653973095 M643.4304966632999,366.68150653973095 L642.669436294918,369.3121266430117 M642.669436294918,369.3121266430117 L641.7389208582466,371.8232633897962 M641.7389208582466,371.8232633897962 L640.6429644828975,374.20662110089535 M640.6429644828975,374.20662110089535 L639.3860772626954,376.4544432818609 M639.3860772626954,376.4544432818609 L637.9732694112316,378.5594904175442 M637.9732694112316,378.5594904175442 L636.4100211600878,380.51507018761606 M636.4100211600878,380.51507018761606 L634.7022127199758,382.31503716216224 M634.7022127199758,382.31503716216224 L632.8561379050127,383.95378869977293 M632.8561379050127,383.95378869977293 L630.8785095943695,385.4262406723209 M630.8785095943695,385.4262406723209 L628.535383018022,386.86182135464776 M628.535383018022,386.86182135464776 L626.0486792309298,388.08113088609394 M626.0486792309298,388.08113088609394 L623.4290332772341,389.0796140235677 M623.4290332772341,389.0796140235677 L620.6875338330558,389.85353487757277 M620.6875338330558,389.85353487757277 L617.8356637657505,390.40000176387827 M617.8356637657505,390.40000176387827 L614.8853497737637,390.7169742335751 M614.8853497737637,390.7169742335751 L611.8488187636182,390.8032736591366 M611.8488187636182,390.8032736591366 L608.7387283976407,390.65855729817605 M608.7387283976407,390.65855729817605 L605.5679390816874,390.2833920378086 M605.5679390816874,390.2833920378086 L602.3496878622911,389.6791976457396 M602.3496878622911,389.6791976457396 L599.0973804268068,388.848307639087 M599.0973804268068,388.848307639087 L596.0106194489554,387.85969279079865 M596.0106194489554,387.85969279079865 L592.920175175819,386.67690613700677 M592.920175175819,386.67690613700677 L589.6465736671722,385.2132418690324 M589.6465736671722,385.2132418690324 L586.3958788865813,383.5423675028922 M586.3958788865813,383.5423675028922 L583.1754925899735,381.66773323408 M583.1754925899735,381.66773323408 L580.0026139487551,379.59862970569213 M580.0026139487551,379.59862970569213 L576.8910388749644,377.34364353475013 M576.8910388749644,377.34364353475013 L573.8543859310589,374.9122417343888 M573.8543859310589,374.9122417343888 L570.9059871959658,372.3147317570257 M570.9059871959658,372.3147317570257 L568.0588901417088,369.56221592000986 M568.0588901417088,369.56221592000986 L565.3256937660711,366.66657038278544 M565.3256937660711,366.66657038278544 L562.7185803602152,363.6403526015951 M562.7185803602152,363.6403526015951 L560.2491501048997,360.4967676153548 M560.2491501048997,360.4967676153548 L557.9283969460971,357.24961716001724 M557.9283969460971,357.24961716001724 L555.7666592033584,353.91318042131024 M555.7666592033584,353.91318042131024 L553.9650216056095,350.8462286851673 M553.9650216056095,350.8462286851673 L552.3064114920705,347.7298722090259 M552.3064114920705,347.7298722090259 L550.7967635959891,344.57525861751293 M550.7967635959891,344.57525861751293 L549.4414221564884,341.39367023670286 M549.4414221564884,341.39367023670286 L548.245114334271,338.1964706726062 M548.245114334271,338.1964706726062 L547.2120267659445,334.99503612398627 M547.2120267659445,334.99503612398627 L546.3456545763385,331.8007537793398 M546.3456545763385,331.8007537793398 L545.6489590394791,328.6249131836447 M545.6489590394791,328.6249131836447 L545.124221004973,325.47871257293104 M545.124221004973,325.47871257293104 L544.7730871187764,322.37318660882806 M544.7730871187764,322.37318660882806 L544.5965883475121,319.31918051309844 M544.5965883475121,319.31918051309844 L544.5951920179562,316.3272924992268 M544.5951920179562,316.3272924992268 L544.7686873986834,313.40788260692597 M544.7686873986834,313.40788260692597 L545.1163058920498,310.5709904763168 M545.1163058920498,310.5709904763168 L545.636674705612,307.82633412828454 M545.636674705612,307.82633412828454 L546.3278899232282,305.18329704411406 M546.3278899232282,305.18329704411406 L547.1874673996795,302.6508580313597 M547.1874673996795,302.6508580313597 L548.2123888505516,300.2376473828801 M548.2123888505516,300.2376473828801 L549.399136472751,297.9518526682548 M549.399136472751,297.9518526682548 L550.7436606238745,295.8012541221824 M550.7436606238745,295.8012541221824 L552.2414587954959,293.7931948864534 M552.2414587954959,293.7931948864534 L553.887520859875,291.93456967909356 M553.887520859875,291.93456967909356 L555.6764084439146,290.2317999408583 M555.6764084439146,290.2317999408583 L557.6022294972769,288.69083939585687 M557.6022294972769,288.69083939585687 L559.8949250624885,287.17506336464976 M559.8949250624885,287.17506336464976 L562.339539981695,285.8725805535511 M562.339539981695,285.8725805535511 L564.9261707297132,284.789363245972 M564.9261707297132,284.789363245972 L567.6443227419353,283.9306011235192 M567.6443227419353,283.9306011235192 L570.4828551398961,283.30063668961793 M570.4828551398961,283.30063668961793 L573.4301546743851,282.9029322748494 M573.4301546743851,282.9029322748494 L576.4739940927476,282.7400761081393 M576.4739940927476,282.7400761081393 L579.6016789244433,282.81371382044335 M579.6016789244433,282.81371382044335 L582.8000001487908,283.12453581140846 M582.8000001487908,283.12453581140846 L586.0553350496101,283.672229531948 M586.0553350496101,283.672229531948 L589.3536173778377,284.4554724196156 M589.3536173778377,284.4554724196156 L592.4912129464147,285.4080362784236 M592.4912129464147,285.4080362784236 L595.638890296733,286.5640089686412" stroke="black"  stroke-width="4"  fill="red"/>
<path d="" stroke="black"  stroke-width="4"  fill="red"/>
<path d="M445.1358030904936,522.1180691680687 L300.12821358396656,581.9562481037151 M300.12821358396656,581.9562481037151 L174.8048582252847,503.26111738379376 M174.8048582252847,503.26111738379376 L405.373163472846,224.00228999974777 M405.373163472846,224.00228999974777 L489.2664323987818,255.99389152173592 M489.2664323987818,255.99389152173592 L592.9883410244548,470.94524036257724 M592.9883410244548,470.94524036257724 L571.9077717963596,602.3540712874458 M571.9077717963596,602.3540712874458 L490.6693121199189,637.5944099217368 M445.1358030904936,522.1180691680687 L490.6693121199189,637.5944099217368 M413.7180599790535,518.8208084194086 L291.87743885873397,568.790886312689 M300.12821358396656,581.9562481037151 L291.87743885873397,568.790886312689 M434.11249885496153,515.6087300393942 L445.1358030904936,522.1180691680687 M413.7180599790535,518.8208084194086 L434.11249885496153,515.6087300393942 M434.11249885496153,515.6087300393942 L434.14449242643457,525.6819046691562 M434.14449242643457,525.6819046691562 L478.4502072098363,637.8254417135886 M478.4502072098363,637.8254417135886 L490.6693121199189,637.5944099217368 M561.8568957429798,601.7109789227252 L478.4502072098363,637.8254417135886 M571.9077717963596,602.3540712874458 L561.8568957429798,601.7109789227252 M581.4320805046088,479.88037611406975 L561.8568957429798,601.7109789227252 M592.9883410244548,470.94524036257724 L581.4320805046088,479.88037611406975 M489.2664323987818,255.99389152173592 L476.36940428414033,262.7057871821977 M581.4320805046088,479.88037611406975 L476.36940428414033,262.7057871821977 M419.2142089489694,241.01499091580195 L405.373163472846,224.00228999974777 M476.36940428414033,262.7057871821977 L419.2142089489694,241.01499091580195 M174.8048582252847,503.26111738379376 L198.20459741387467,509.8558111333941 M419.2142089489694,241.01499091580195 L198.20459741387467,509.8558111333941 M198.20459741387467,509.8558111333941 L291.87743885873397,568.790886312689 M434.14449242643457,525.6819046691562 L413.7180599790535,518.8208084194086" stroke="black"  stroke-width="4"  fill="red"/>
<path d="" stroke="black"  stroke-width="4"  fill="red"/>
<path d="M539.8723064139715,578.0606445357663 L365.03072958744553,685.5180457528309 M434.11249885496153,515.6087300393942 L539.8723064139715,578.0606445357663 M413.7180599790535,518.8208084194086 L434.11249885496153,515.6087300393942 M291.87743885873397,568.790886312689 L413.7180599790535,518.8208084194086 M365.03072958744553,685.5180457528309 L291.87743885873397,568.790886312689 M539.5902671746985,593.999130927019 L383.0544752408036,690.768268793294 M365.03072958744553,685.5180457528309 L383.0544752408036,690.768268793294 M539.5902671746985,593.999130927019 L539.8723064139715,578.0606445357663 M437.0761165614444,533.1022199738197 L539.5902671746985,593.999130927019 M434.14449242643457,525.6819046691562 L437.0761165614444,533.1022199738197 M434.11249885496153,515.6087300393942 L434.14449242643457,525.6819046691562 M413.7180599790535,518.8208084194086 L434.14449242643457,525.6819046691562 M291.87743885873397,568.790886312689 L315.2731339817719,583.5104911707808 M437.0761165614444,533.1022199738197 L315.2731339817719,583.5104911707808 M315.2731339817719,583.5104911707808 L383.0544752408036,690.768268793294" stroke="black"  stroke-width="4"  fill="red"/>
<path d="" stroke="black"  stroke-width="4"  fill="red"/>
<path d="M237.21381187781668,233.30815335525548 L346.31032258516825,276.3908247662317 M404.73999770006236,123.97903644470165 L237.21381187781668,233.30815335525548 M468.4761358040574,121.35935025728111 L404.73999770006236,123.97903644470165 M588.8045455014345,149.6207641300798 L468.4761358040574,121.35935025728111 M346.31032258516825,276.3908247662317 L588.8045455014345,149.6207641300798 M266.7745289011116,208.67137685002547 L365.7209756436445,246.62076618732314 M365.7209756436445,246.62076618732314 L346.31032258516825,276.3908247662317 M266.7745289011116,208.67137685002547 L237.21381187781668,233.30815335525548 M418.13811393959026,110.13706426339104 L266.7745289011116,208.67137685002547 M418.13811393959026,110.13706426339104 L404.73999770006236,123.97903644470165 M468.4761358040574,121.35935025728111 L439.733673500827,109.23173120670583 M439.733673500827,109.23173120670583 L418.13811393959026,110.13706426339104 M571.388286172675,139.98765649211822 L439.733673500827,109.23173120670583 M588.8045455014345,149.6207641300798 L571.388286172675,139.98765649211822 M365.7209756436445,246.62076618732314 L571.388286172675,139.98765649211822" stroke="black"  stroke-width="4"  fill="red"/>
<path d="" stroke="black"  stroke-width="4"  fill="red"/></svg>